ModelForces
version=1
nRows=323
nColumns=2
inDegrees=no

This file contains the forces exerted on a model during a simulation.

A force is a generalized force, meaning that it can be either a force (N) or a torque (Nm).

Units are S.I. units (second, meters, Newtons, ...)
Angles are in degrees.

endheader
time	PgmActuator1
      0.00000000	    122.35837412
      0.01000000	    121.93691081
      0.03333333	    117.65131796
      0.06000000	    107.07933520
      0.06666667	    103.47841889
      0.10000000	     80.02570842
      0.11000000	     71.39303206
      0.13333333	     49.11972243
      0.16666667	     15.35007012
      0.16945918	     12.59899209
      0.20000000	    -14.37246025
      0.22891837	    -32.23655578
      0.23333333	    -34.17646382
      0.26666667	    -42.82393245
      0.27883006	    -43.84263523
      0.30000000	    -43.83088117
      0.32874176	    -41.62342909
      0.33333333	    -41.13677319
      0.36666667	    -37.15441569
      0.39349483	    -33.90328777
      0.40000000	    -33.15750523
      0.43333333	    -29.82419392
      0.46666667	    -27.58866018
      0.47154650	    -27.36904892
      0.50000000	    -26.68491661
      0.53333333	    -27.20902643
      0.54959817	    -27.97310183
      0.56666667	    -29.10791565
      0.60000000	    -32.17998666
      0.61224141	    -33.53651799
      0.63333333	    -36.05274086
      0.66666667	    -40.13120706
      0.67488466	    -41.06117012
      0.70000000	    -43.34325709
      0.73333333	    -43.65780988
      0.73752790	    -43.32873237
      0.76666667	    -37.48808308
      0.78358122	    -30.52223715
      0.80000000	    -20.84513032
      0.82963455	      3.19172752
      0.83333333	      6.66375968
      0.86666667	     40.05271486
      0.89357153	     66.44284485
      0.90000000	     72.27161166
      0.93333333	     97.95605853
      0.95750851	    111.06771982
      0.96666667	    114.71002008
      1.00000000	    121.92894181
      1.02144550	    121.63360175
      1.03333333	    119.77912081
      1.06666667	    108.16877015
      1.07216697	    105.33906106
      1.10000000	     87.12525803
      1.12288844	     67.79706417
      1.13333333	     57.93103806
      1.16666667	     24.34266772
      1.18140377	      9.70597731
      1.20000000	     -7.16106703
      1.23333333	    -29.98863543
      1.23991910	    -33.13100874
      1.26666667	    -41.41316304
      1.28981805	    -43.92273317
      1.30000000	    -44.06507311
      1.33333333	    -42.09581976
      1.33971700	    -41.45556452
      1.36666667	    -38.34166347
      1.40000000	    -34.31732293
      1.40618135	    -33.61056407
      1.43333333	    -30.80750811
      1.46666667	    -28.29769048
      1.47264569	    -27.97686622
      1.50000000	    -27.06535387
      1.53333333	    -27.24035232
      1.53911004	    -27.41477846
      1.56666667	    -28.80429072
      1.60000000	    -31.59468648
      1.60662435	    -32.27014512
      1.63333333	    -35.27927963
      1.66666667	    -39.33707531
      1.67413866	    -40.21426490
      1.70000000	    -42.82415619
      1.73333333	    -43.98823297
      1.74165297	    -43.57287360
      1.76666667	    -39.58173275
      1.78741862	    -32.14129923
      1.80000000	    -25.44362819
      1.83318427	     -0.18481223
      1.83333333	     -0.05013755
      1.86666667	     32.64575386
      1.89692417	     62.76020867
      1.90000000	     65.64219149
      1.93333333	     93.02530878
      1.96066408	    109.14046399
      1.96666667	    111.82300461
      1.97428847	    114.78358604
      1.98077401	    116.91033421
      1.98684997	    118.57635195
      1.99029749	    119.38166369
      1.99381638	    120.09940427
      1.99595429	    120.48413588
      1.99739253	    120.72115652
      1.99844183	    120.88302777
      1.99956353	    121.04575902
      1.99982237	    121.08179952
      1.99993508	    121.09731493
      1.99999994	    121.10619574
      2.00000000	    121.10620352
      2.00001396	   2077.87647252
      2.00002798	   2078.12383260
      2.00009806	   2079.30489257
      2.00044849	   2083.81107638
      2.00220060	   2071.14237282
      2.00679931	   1787.61298141
      2.01139801	   1299.70120942
      2.01826675	    634.56098443
      2.02877696	    153.60847211
      2.03333333	     78.22125360
      2.03928717	     31.57514305
      2.05374576	      3.43709913
      2.06666667	      0.54283922
      2.07530977	      0.19112966
      2.10000000	      0.06249164
      2.11690225	      0.20199075
      2.13333333	      1.39999922
      2.13670540	      2.16611934
      2.15379506	     20.64620882
      2.16666667	    106.74762497
      2.16930360	    146.85649077
      2.18481214	    737.74858966
      2.19585950	   1350.62367977
      2.20000000	   1408.84004594
      2.20322125	   1348.85108112
      2.20992609	   1005.42242273
      2.21663094	    598.58173387
      2.22676106	    208.03112502
      2.23333333	     94.82678433
      2.24268515	     28.82161258
      2.25860924	      3.53055319
      2.26666667	      1.23829670
      2.28224928	      0.19979654
      2.30000000	      0.06102923
      2.32494051	      0.21787930
      2.33333333	      0.61555170
      2.33864449	      1.28778577
      2.35312470	     11.32959154
      2.36666667	     90.03517750
      2.36698861	     94.47146267
      2.37937852	    533.37004021
      2.39176843	   1738.24962634
      2.39997183	   2050.82158396
      2.40000000	   2049.83842376
      2.40483722	   1702.74169179
      2.40970260	   1174.87291668
      2.41696115	    526.73984869
      2.42985807	     86.37449397
      2.43333333	     51.10253334
      2.44275498	     12.00494441
      2.45955752	      0.97829000
      2.46666667	      0.37902992
      2.48772331	      0.06343985
      2.50000000	      0.06896603
      2.53333333	      1.99369970
      2.53617160	      2.88834496
      2.55033587	     18.72453783
      2.56611978	    138.50562379
      2.56666667	    147.87114837
      2.58190369	    723.39391429
      2.59298512	   1341.21813757
      2.60000000	   1361.78556287
      2.60051827	   1346.31310261
      2.60721515	   1005.42413123
      2.61391203	    600.08480941
      2.62402202	    209.59234571
      2.63333333	     68.02088878
      2.64004437	     28.77375774
      2.65606672	      3.48791915
      2.66666667	      0.88890524
      2.67975245	      0.19754819
      2.70000000	      0.05884182
      2.72260243	      0.22350436
      2.73333333	      0.87279301
      2.73625180	      1.31782454
      2.75077557	     11.66914254
      2.76462086	     96.76792653
      2.76666667	    131.01578750
      2.77702086	    544.07973136
      2.78942086	   1751.86879832
      2.79742083	   2048.61718521
      2.80000000	   1905.40795863
      2.80226337	   1706.11768501
      2.80710591	   1182.58277710
      2.81433913	    533.82889221
      2.82697933	     91.37547016
      2.83333333	     34.89165195
      2.83961954	     13.25815907
      2.85616672	      1.11290939
      2.86666667	      0.28053972
      2.88355515	      0.06754041
      2.90000000	      0.07788651
      2.93333333	      2.72809775
      2.93772888	      4.86272911
      2.95240587	     33.42309869
      2.96666667	    195.00396678
      2.96757661	    216.49199607
      2.98274735	    918.30044745
      2.99416775	   1401.56759156
      2.99910492	   1309.54124075
      3.00000000	   1272.43050820
      3.00404209	   1054.48858489
      3.01131375	    613.79252709
      3.02095156	    228.25831655
      3.03333333	     50.80051514
      3.03774079	     28.80486603
      3.05453002	      3.16798493
      3.06666667	      0.67293601
      3.07843990	      0.18023007
      3.10000000	      0.05894394
      3.12242561	      0.28137196
      3.13333333	      1.18228041
      3.13553565	      1.62221745
      3.15031647	     15.11481840
      3.16393040	    119.64677507
      3.16666667	    178.32422086
      3.17640274	    652.22318023
      3.18676232	   1695.83911293
      3.19712190	   1954.91582371
      3.20000000	   1717.95058841
      3.20307229	   1392.89507560
      3.20902267	    781.83059680
      3.21825133	    239.54644881
      3.23068443	     38.04954722
      3.23333333	     25.35403384
      3.24311754	      5.64785965
      3.26318648	      0.33358710
      3.26666667	      0.22185396
      3.29895364	      0.08233777
      3.30000000	      0.08797987
      3.32623513	      1.39845006
      3.33333333	      3.51580502
      3.34225778	     11.40167523
      3.35853483	     92.43938130
      3.36666667	    242.71135368
      3.37481188	    562.03901010
      3.38601400	   1219.11910690
      3.39721611	   1306.79483615
      3.40000000	   1176.54543510
      3.40442210	    911.99407671
      3.41162810	    499.97300115
      3.42307341	    143.17327400
      3.43333333	     40.00463907
      3.43758989	     23.06193697
      3.45210637	      3.41815646
      3.46666667	      0.53929920
      3.47658845	      0.18078573
      3.50000000	      0.06037326
      3.52008280	      0.26339837
      3.53333333	      1.52379151
      3.53336277	      1.53028445
      3.54809216	     14.06848531
      3.56178192	    112.77450557
      3.56666667	    228.69882640
      3.57423618	    619.45159599
      3.58488276	   1679.46378664
      3.59552935	   1942.69519477
      3.60000000	   1537.19896291
      3.60157364	   1365.28313428
      3.60761793	    752.87440676
      3.61708981	    221.18788348
      3.62936619	     35.79438656
      3.63333333	     19.47914680
      3.64164258	      5.45168954
      3.66195414	      0.31552445
      3.66666667	      0.18467560
      3.69818442	      0.08706329
      3.70000000	      0.09870179
      3.72474723	      1.42366634
      3.73333333	      4.34960258
      3.74090255	     11.79006759
      3.75714766	     94.78019153
      3.76666667	    289.10487841
      3.77339276	    569.67600380
      3.78457598	   1223.25976975
      3.79575919	   1299.41151614
      3.80000000	   1085.26449708
      3.80303109	    899.25186412
      3.81030298	    487.96658069
      3.82195517	    135.81388791
      3.83333333	     32.78375086
      3.83640768	     22.00471478
      3.85086019	      3.29498809
      3.86666667	      0.45104575
      3.87559603	      0.17205822
      3.90000000	      0.06250512
      3.91961780	      0.29614455
      3.93264600	      1.70095170
      3.93333333	      1.88006321
      3.94748990	     15.98865059
      3.96106774	    125.17060556
      3.96666667	    278.70358082
      3.97358560	    678.09602465
      3.98375134	   1705.08422646
      3.99391709	   1952.74303362
      3.99983547	   1399.64025017
      4.00000000	   1381.54086658
      4.00575385	    791.77005189
      4.01489775	    246.88641424
      4.02743390	     38.83108606
      4.03333333	     15.71921991
      4.03997005	      5.69083397
      4.05998546	      0.33919077
      4.06666667	      0.16034360
      4.09566556	      0.08093239
      4.10000000	      0.10928275
      4.12327266	      1.39579197
      4.13333333	      5.16814733
      4.13929103	     11.32255191
      4.15560720	     91.86885512
      4.16666667	    331.59683667
      4.17192337	    559.10183177
      4.18314915	   1213.30414181
      4.19437493	   1301.14132382
      4.20000000	   1007.02112366
      4.20159228	    908.43676521
